# xmcd CD database file
#
# Track frame offsets:
#	150
#	16985
#	32898
#
# Disc length: 662 seconds
#
# Revision: 1
# Processed by: cddbd v1.5PL3 Copyright (c) Steve Scherf et al.
# Submitted via: CDex 1.51
#
DISCID=1b029403
DTITLE=PAMELAH - I shall be released
DYEAR=1996
DGENRE=JPop
TTITLE0=I shall be released
TTITLE1=そばにおいで
TTITLE2=I shall be released (Original Karaoke)
EXTD=YEAR: 1996
EXTT0=
EXTT1=
EXTT2=
PLAYORDER=
